<svg width="20" height="20" viewBox="0 0 20 20" fill="none" xmlns="http://www.w3.org/2000/svg">
<path d="M16.0473 11.8022C15.298 12.2577 14.4375 12.4972 13.5606 12.4944C12.826 12.4886 12.0997 12.3383 11.4231 12.0522C10.9016 12.7884 10.6225 13.6688 10.6247 14.571V16.8749C10.6249 16.9606 10.6074 17.0454 10.5735 17.124C10.5395 17.2027 10.4897 17.2735 10.4272 17.3321C10.3647 17.3907 10.2908 17.4359 10.2102 17.4647C10.1295 17.4936 10.0437 17.5056 9.95826 17.4999C9.79761 17.4859 9.64819 17.4117 9.53995 17.2922C9.43172 17.1726 9.37268 17.0166 9.37466 16.8554V15.8835L6.35748 12.8663C5.90896 13.0336 5.43461 13.1211 4.95591 13.1249C4.29691 13.1265 3.65024 12.9462 3.08716 12.6038C1.38482 11.5694 0.468413 9.18895 0.645757 6.23348C0.654686 6.08058 0.719449 5.93628 0.827752 5.82797C0.936054 5.71967 1.08035 5.65491 1.23326 5.64598C4.18873 5.47176 6.56919 6.38504 7.60044 8.08739C8.00561 8.75464 8.1825 9.53567 8.10435 10.3124C8.09949 10.3726 8.07731 10.43 8.04047 10.4779C8.00364 10.5257 7.95374 10.5619 7.8968 10.5819C7.83987 10.602 7.77833 10.6052 7.71964 10.591C7.66094 10.5769 7.6076 10.546 7.56607 10.5022L6.06607 8.93192C5.94791 8.81965 5.79056 8.75799 5.62759 8.76008C5.46461 8.76217 5.3089 8.82784 5.19365 8.94309C5.07839 9.05834 5.01272 9.21405 5.01064 9.37703C5.00855 9.54 5.07021 9.69735 5.18248 9.81551L9.39185 14.1319C9.39654 14.071 9.40201 14.01 9.40826 13.9499C9.54493 12.7911 10.0563 11.7086 10.8645 10.8671L14.8169 6.69051C14.9341 6.57334 15.0001 6.41438 15.0001 6.2486C15.0002 6.08282 14.9344 5.9238 14.8172 5.80653C14.7001 5.68925 14.5411 5.62332 14.3753 5.62325C14.2095 5.62318 14.0505 5.68896 13.9333 5.80614L10.1051 9.85457C10.0668 9.89516 10.0183 9.92474 9.9647 9.94025C9.91108 9.95575 9.85428 9.95661 9.80022 9.94274C9.74615 9.92886 9.69679 9.90076 9.65726 9.86135C9.61773 9.82194 9.58948 9.77266 9.57544 9.71864C9.20513 8.35301 9.36841 6.99364 10.0754 5.82645C11.4708 3.52332 14.7176 2.29051 18.7614 2.52801C18.9143 2.53694 19.0586 2.6017 19.1669 2.71001C19.2752 2.81831 19.34 2.96261 19.3489 3.11551C19.5833 7.16004 18.3504 10.4069 16.0473 11.8022Z" fill="#7D287D"/>
</svg>
