<svg width="24" height="24" viewBox="0 0 24 24" fill="none" xmlns="http://www.w3.org/2000/svg">
<path d="M16.38 10.41C16.84 10.41 17.225 10.25 17.535 9.93C17.845 9.61 18 9.23 18 8.79C18 8.33 17.845 7.945 17.535 7.635C17.225 7.325 16.84 7.17 16.38 7.17C15.94 7.17 15.56 7.325 15.24 7.635C14.92 7.945 14.76 8.33 14.76 8.79C14.76 9.23 14.92 9.61 15.24 9.93C15.56 10.25 15.94 10.41 16.38 10.41ZM7.62 10.41C8.08 10.41 8.465 10.25 8.775 9.93C9.085 9.61 9.24 9.23 9.24 8.79C9.24 8.33 9.085 7.945 8.775 7.635C8.465 7.325 8.08 7.17 7.62 7.17C7.18 7.17 6.8 7.325 6.48 7.635C6.16 7.945 6 8.33 6 8.79C6 9.23 6.16 9.61 6.48 9.93C6.8 10.25 7.18 10.41 7.62 10.41ZM12 13.89C10.66 13.89 9.445 14.265 8.355 15.015C7.265 15.765 6.46 16.76 5.94 18H7.53C7.97 17.16 8.59 16.51 9.39 16.05C10.19 15.59 11.07 15.36 12.03 15.36C12.97 15.36 13.835 15.595 14.625 16.065C15.415 16.535 16.04 17.18 16.5 18H18.06C17.56 16.74 16.76 15.74 15.66 15C14.56 14.26 13.34 13.89 12 13.89ZM12 24C10.34 24 8.78 23.685 7.32 23.055C5.86 22.425 4.59 21.57 3.51 20.49C2.43 19.41 1.575 18.14 0.945 16.68C0.315 15.22 0 13.66 0 12C0 10.34 0.315 8.78 0.945 7.32C1.575 5.86 2.43 4.59 3.51 3.51C4.59 2.43 5.86 1.575 7.32 0.945C8.78 0.315 10.34 0 12 0C13.66 0 15.22 0.315 16.68 0.945C18.14 1.575 19.41 2.43 20.49 3.51C21.57 4.59 22.425 5.86 23.055 7.32C23.685 8.78 24 10.34 24 12C24 13.66 23.685 15.22 23.055 16.68C22.425 18.14 21.57 19.41 20.49 20.49C19.41 21.57 18.14 22.425 16.68 23.055C15.22 23.685 13.66 24 12 24ZM12 22.2C14.84 22.2 17.25 21.21 19.23 19.23C21.21 17.25 22.2 14.84 22.2 12C22.2 9.16 21.21 6.75 19.23 4.77C17.25 2.79 14.84 1.8 12 1.8C9.16 1.8 6.75 2.79 4.77 4.77C2.79 6.75 1.8 9.16 1.8 12C1.8 14.84 2.79 17.25 4.77 19.23C6.75 21.21 9.16 22.2 12 22.2Z" fill="white"/>
</svg>
